<svg xmlns="http://www.w3.org/2000/svg" width="335" height="73.091" viewBox="0 0 335 73.091">
    <defs>
        <style>
            .cls-1{fill:#428efa}.cls-2{fill:#0f2035}
        </style>
    </defs>
    <g id="Group_2875" transform="translate(-310 -40)">
        <g id="Group_17" transform="translate(310 40)">
            <path id="Path_4481" d="M406.8 475.624c-11.086-6.693-13.769-22.192-5.972-34.656s23.093-17.145 34.176-10.5c19.736 11.92 30.823 41.756 33.137 49.479a1.775 1.775 0 0 1-1.441 2.253c-8.086 1.415-40.2 5.323-59.9-6.576z" class="cls-1" transform="translate(-396.36 -416.048)"/>
            <path id="Path_4482" d="M476.782 456.12c.576 1.187 1.126 2.35 1.642 3.48a.823.823 0 0 0 1.573-.275c.739-10.727.281-25.531-5.428-36.716a19.432 19.432 0 0 0-26.2-8.308c-.123.063-.245.129-.366.195a13.613 13.613 0 0 0-4.568 4.05.828.828 0 0 0 .448 1.236c14.617 5.608 25.069 18.605 32.899 36.338z" class="cls-1" transform="translate(-408.4 -412.116)"/>
        </g>
        <g id="Group_18" transform="translate(397.103 45.79)">
            <path id="Path_4483" d="M520.77 472.673a3.066 3.066 0 1 1-6.115.468 3.021 3.021 0 0 1 0-.468v-43.784a3.018 3.018 0 0 1 3.3-3.372h12.229c9.453 0 16.2 6.536 16.2 15.673a15.517 15.517 0 0 1-15.351 15.682c-.236 0-.472 0-.708-.009H520.8v15.813zm0-21.119h9.143a9.968 9.968 0 0 0 10.263-9.665c.007-.221.006-.444 0-.665 0-6.29-4.181-10.332-10.576-10.332h-8.856v20.662z" class="cls-2" transform="translate(-514.632 -421.339)"/>
            <path id="Path_4484" d="M562.567 445.1a2.958 2.958 0 0 1 2.823-3.116 3.018 3.018 0 0 1 3.292 2.673 2.766 2.766 0 0 1 0 .443v18.733c0 6.189 2.921 9.284 8.6 9.284 5.763 0 8.68-3.128 8.68-9.284V445.1a2.957 2.957 0 0 1 2.823-3.116 3.018 3.018 0 0 1 3.291 2.673 2.78 2.78 0 0 1 0 .443v18.967c0 8.884-5.553 14.141-14.83 14.141-9.206 0-14.759-5.259-14.759-14.141V445.1z" class="cls-2" transform="translate(-526.908 -425.564)"/>
            <path id="Path_4485" d="M616.671 448.1c2.11-3.689 5.411-6.09 8.468-6.09a3.091 3.091 0 0 1 3.364 2.747c.007.082.01.165.009.248 0 1.691-1.195 2.7-3.83 3.194-5.165.931-8.259 4.625-8.187 10.083v16.838a2.959 2.959 0 0 1-2.824 3.117 3.019 3.019 0 0 1-3.291-2.674 2.765 2.765 0 0 1 0-.443v-29.945a2.957 2.957 0 0 1 2.823-3.116 3.018 3.018 0 0 1 3.291 2.673 2.737 2.737 0 0 1 0 .443v2.994h.176z" class="cls-2" transform="translate(-539.189 -425.572)"/>
            <path id="Path_4486" d="M641.035 462.32c.211 3.759 1.125 5.955 3.233 7.952a10.964 10.964 0 0 0 7.942 2.828 14.794 14.794 0 0 0 9.909-3.493c1.442-1.065 2.039-1.365 2.706-1.365a2.412 2.412 0 0 1 2.179 2.5c0 3.393-8.259 7.387-15.215 7.387-10.12 0-16.868-7.154-16.868-17.969 0-10.581 7.064-18.235 16.657-18.235 9.137 0 16.2 7.453 16.2 17.1 0 2.429-.914 3.262-3.444 3.262h-23.3zm20.558-4.393c-.317-6.887-4.112-10.948-10.332-10.948s-9.662 3.689-10.19 10.948z" class="cls-2" transform="translate(-545.487 -425.551)"/>
            <path id="Path_4487" d="M692.746 471.238a3.066 3.066 0 1 1-6.115 0V423.2a3.066 3.066 0 1 1 6.115 0z" class="cls-2" transform="translate(-558.748 -419.903)"/>
            <path id="Path_4488" d="M701.633 448.047a13.778 13.778 0 0 1-.811-3.444 2.759 2.759 0 0 1 2.847-2.636 3.216 3.216 0 0 1 3.058 2.32l8.539 25.645h.141l8.4-25.645a3.054 3.054 0 0 1 2.921-2.32 2.759 2.759 0 0 1 2.847 2.636 11.568 11.568 0 0 1-.811 3.444l-15.6 44.593a3.29 3.29 0 0 1-2.987 2.25 2.706 2.706 0 0 1-2.844-2.56v-.076a9.876 9.876 0 0 1 .914-3.373l3.97-10.506z" class="cls-2" transform="translate(-562.391 -427.592)"/>
            <path id="Path_4489" d="M752.733 472.066c0 2.389-1.125 3.759-3.058 3.759s-3.056-1.336-3.056-3.759v-43.4c0-2.389 1.125-3.759 3.056-3.759s3.058 1.336 3.058 3.759v18.976h26.39v-18.975c0-2.389 1.124-3.759 3.057-3.759s3.057 1.336 3.057 3.759v43.4c0 2.389-1.125 3.759-3.057 3.759s-3.057-1.336-3.057-3.759V452.95h-26.39z" class="cls-2" transform="translate(-574.138 -421.187)"/>
            <path id="Path_4490" d="M812.71 472.673a3.066 3.066 0 1 1-6.115 0v-43.784a3.018 3.018 0 0 1 3.3-3.372h11.35c8.784 0 15.285 5.939 15.285 13.951 0 8.328-5.165 13.493-13.565 13.7l-2.705.07 15.954 17.465a3.659 3.659 0 0 1 1.195 2.775 2.577 2.577 0 0 1-2.677 2.472c-.056 0-.114-.007-.17-.013a3.635 3.635 0 0 1-2.776-1.442l-19.115-20.9v19.077zm0-24.071h8.4c6.361 0 9.312-2.775 9.312-8.856 0-5.306-3.83-8.927-9.453-8.927h-8.259z" class="cls-2" transform="translate(-589.516 -421.339)"/>
        </g>
    </g>
</svg>
